<svg xmlns="http://www.w3.org/2000/svg" version="1.1" xmlns:xlink="http://www.w3.org/1999/xlink" xmlns:svgjs="http://svgjs.dev/svgjs" width="1500" height="1500" viewBox="0 0 1500 1500"><rect width="1500" height="1500" fill="#000000"></rect><g transform="matrix(0.6666666666666666,0,0,0.6666666666666666,248.7765957446809,560.9975996713615)"><svg viewBox="0 0 376 142" data-background-color="#21232b" preserveAspectRatio="xMidYMid meet" height="566" width="1500" xmlns="http://www.w3.org/2000/svg" xmlns:xlink="http://www.w3.org/1999/xlink"><g id="tight-bounds" transform="matrix(1,0,0,1,0.46023999999999887,0.12634499999998638)"><svg viewBox="0 0 375.07953 141.74731000000003" height="141.74731000000003" width="375.07953"><g><svg></svg></g><g><svg viewBox="0 0 375.07953 141.74731000000003" height="141.74731000000003" width="375.07953"><g transform="matrix(1,0,0,1,-10.22024,-55.52175)"><path d="M10.22 191.678v-136.156h375.08v136.156h-125.687l0-4.429h121.258v-127.298h-366.222v127.298h24.845l0 4.429z" fill="#ffffff" fill-rule="nonzero" stroke="none" stroke-width="1" stroke-linecap="butt" stroke-linejoin="miter" stroke-miterlimit="10" stroke-dasharray="" stroke-dashoffset="0" font-family="none" font-weight="none" font-size="none" text-anchor="none" style="mix-blend-mode: normal" data-fill-palette-color="tertiary"></path><g><path d="M54.156 193.582v0c0.088 0.039 0.161 0.122 0.22 0.249v0c-0.322 0.263-0.483 0.658-0.483 1.185v0c0 0.468 0.215 0.844 0.644 1.127 0.429 0.283 0.985 0.424 1.668 0.424v0c0.702 0 1.287-0.129 1.755-0.386 0.468-0.259 0.702-0.623 0.702-1.092v0c0-0.507-0.093-0.88-0.278-1.118-0.185-0.24-0.556-0.384-1.111-0.433v0l-2.736-0.248c-0.302-0.039-0.553-0.198-0.752-0.477-0.201-0.277-0.301-0.547-0.302-0.811v0l0.98-1.624c-0.449-0.254-0.787-0.59-1.015-1.009-0.23-0.419-0.345-0.849-0.345-1.288v0c0-0.829 0.307-1.497 0.922-2.004 0.614-0.507 1.322-0.761 2.121-0.761v0c0.771 0 1.448 0.205 2.034 0.615v0c0.049-1.336 0.546-2.029 1.492-2.078v0c0.254 0.059 0.38 0.268 0.38 0.629v0c0 0.195-0.02 0.41-0.058 0.644v0c-0.38 0.029-0.693 0.153-0.937 0.371-0.244 0.22-0.419 0.472-0.526 0.755v0c0.488 0.488 0.732 1.097 0.731 1.829v0c0 0.771-0.312 1.411-0.936 1.923-0.624 0.513-1.351 0.77-2.18 0.769v0c-0.439 0-0.834-0.059-1.185-0.175v0l-0.498 1.302 3.643 0.365c0.566 0.068 0.998 0.275 1.297 0.621 0.297 0.347 0.445 0.799 0.444 1.355v0c0 0.975-0.351 1.724-1.053 2.247-0.702 0.521-1.653 0.781-2.853 0.781v0c-0.995 0-1.77-0.18-2.326-0.541-0.556-0.361-0.834-0.844-0.834-1.449v0c0-0.41 0.132-0.772 0.395-1.088 0.263-0.318 0.59-0.521 0.98-0.609zM54.42 188.081v0c0 0.566 0.159 1.049 0.477 1.449 0.316 0.4 0.737 0.6 1.264 0.599v0c0.517 0 0.941-0.198 1.272-0.594 0.332-0.394 0.497-0.879 0.498-1.454v0c0-0.624-0.163-1.144-0.489-1.559-0.328-0.414-0.755-0.62-1.281-0.621v0c-0.497 0-0.912 0.21-1.244 0.629-0.332 0.419-0.497 0.936-0.497 1.551zM60.696 189.53v0c0-0.585 0.086-1.134 0.258-1.648 0.17-0.511 0.415-0.957 0.737-1.337 0.322-0.38 0.71-0.681 1.164-0.901 0.453-0.218 0.962-0.328 1.528-0.328v0c0.556 0 1.063 0.109 1.521 0.328 0.458 0.22 0.851 0.521 1.18 0.901 0.326 0.38 0.576 0.826 0.752 1.337 0.176 0.513 0.263 1.062 0.263 1.648v0c0 0.605-0.09 1.161-0.269 1.667-0.181 0.507-0.435 0.948-0.761 1.323-0.328 0.376-0.721 0.669-1.179 0.878-0.458 0.211-0.961 0.316-1.507 0.316v0c-0.575 0-1.089-0.102-1.542-0.307-0.455-0.205-0.84-0.493-1.156-0.864-0.318-0.371-0.562-0.812-0.731-1.325-0.172-0.511-0.257-1.074-0.258-1.688zM62.832 186.838v0c-0.419 0.595-0.629 1.492-0.629 2.692v0c0 0.595 0.057 1.117 0.17 1.565 0.111 0.449 0.264 0.821 0.459 1.118 0.195 0.298 0.424 0.521 0.688 0.667 0.263 0.146 0.551 0.219 0.863 0.219v0c0.302 0 0.59-0.073 0.863-0.219 0.273-0.146 0.507-0.369 0.702-0.667 0.195-0.297 0.351-0.669 0.468-1.118 0.117-0.449 0.176-0.97 0.176-1.565v0c0-0.595-0.059-1.12-0.176-1.575-0.117-0.453-0.275-0.828-0.474-1.126-0.201-0.297-0.435-0.521-0.702-0.673-0.269-0.15-0.555-0.225-0.857-0.225v0c-0.605 0-1.122 0.302-1.551 0.907zM71.508 183.853v0 2.092h2.063c0.02 0.117 0.029 0.205 0.029 0.263v0c0 0.088-0.01 0.19-0.029 0.308v0l-2.063 0.307v4.023c0 0.722 0.066 1.231 0.199 1.528 0.131 0.298 0.337 0.448 0.62 0.447v0c0.254 0 0.649-0.102 1.185-0.307v0c0.098 0.088 0.166 0.254 0.205 0.498v0c-0.293 0.176-0.514 0.304-0.664 0.386-0.152 0.084-0.342 0.158-0.571 0.222-0.23 0.062-0.472 0.094-0.725 0.094v0c-0.488 0-0.885-0.188-1.191-0.565-0.308-0.375-0.462-0.947-0.463-1.717v0-4.785l-1.024-0.131c-0.02-0.098-0.029-0.18-0.029-0.249v0c0-0.078 0.01-0.185 0.029-0.322v0c0.273-0.049 0.51-0.135 0.711-0.257 0.199-0.121 0.367-0.292 0.504-0.512 0.137-0.218 0.242-0.414 0.316-0.586 0.072-0.17 0.162-0.415 0.269-0.737v0c0.088-0.029 0.195-0.044 0.322-0.044v0c0.117 0 0.219 0.015 0.307 0.044zM80.052 184.146v2.384c0.81-0.81 1.692-1.214 2.648-1.214v0c0.946 0 1.685 0.356 2.218 1.068 0.531 0.712 0.796 1.673 0.796 2.882v0c0 1.375-0.371 2.46-1.112 3.254-0.741 0.796-1.663 1.194-2.765 1.194v0c-0.956 0-1.707-0.341-2.253-1.024v0l-0.307 0.995c-0.185 0.029-0.341 0.029-0.469 0v0l-0.146-1.61v-9.583l-1.2-0.146c-0.039-0.146-0.039-0.332 0-0.556v0c0.673-0.049 1.512-0.151 2.517-0.307v0c0.088 0.098 0.137 0.195 0.146 0.292v0c-0.049 0.254-0.073 1.044-0.073 2.371zM82.159 192.909v0c0.605 0 1.105-0.281 1.501-0.843 0.394-0.56 0.591-1.352 0.591-2.375v0c0-0.205-0.005-0.361-0.015-0.469v0c0-0.966-0.192-1.712-0.576-2.238-0.386-0.527-0.872-0.79-1.457-0.79v0c-0.341 0-0.712 0.109-1.112 0.328-0.4 0.22-0.746 0.521-1.039 0.901v0 4.477c0.332 0.38 0.649 0.644 0.951 0.79 0.302 0.146 0.688 0.219 1.156 0.219zM86.987 189.53v0c0-0.585 0.086-1.134 0.257-1.648 0.17-0.511 0.415-0.957 0.738-1.337 0.322-0.38 0.71-0.681 1.164-0.901 0.453-0.218 0.962-0.328 1.528-0.328v0c0.556 0 1.063 0.109 1.521 0.328 0.458 0.22 0.851 0.521 1.179 0.901 0.326 0.38 0.576 0.826 0.752 1.337 0.176 0.513 0.263 1.062 0.264 1.648v0c0 0.605-0.09 1.161-0.269 1.667-0.181 0.507-0.435 0.948-0.761 1.323-0.328 0.376-0.721 0.669-1.179 0.878-0.458 0.211-0.961 0.316-1.507 0.316v0c-0.575 0-1.089-0.102-1.542-0.307-0.455-0.205-0.84-0.493-1.156-0.864-0.318-0.371-0.562-0.812-0.732-1.325-0.172-0.511-0.257-1.074-0.257-1.688zM89.123 186.838v0c-0.419 0.595-0.629 1.492-0.629 2.692v0c0 0.595 0.057 1.117 0.169 1.565 0.111 0.449 0.264 0.821 0.46 1.118 0.195 0.298 0.424 0.521 0.687 0.667 0.263 0.146 0.551 0.219 0.864 0.219v0c0.302 0 0.59-0.073 0.863-0.219 0.273-0.146 0.507-0.369 0.702-0.667 0.195-0.297 0.351-0.669 0.468-1.118 0.117-0.449 0.176-0.97 0.176-1.565v0c0-0.595-0.059-1.12-0.176-1.575-0.117-0.453-0.275-0.828-0.474-1.126-0.201-0.297-0.435-0.521-0.702-0.673-0.269-0.15-0.555-0.225-0.857-0.225v0c-0.605 0-1.122 0.302-1.551 0.907zM95.648 189.53v0c0-0.585 0.086-1.134 0.257-1.648 0.17-0.511 0.415-0.957 0.738-1.337 0.322-0.38 0.71-0.681 1.164-0.901 0.453-0.218 0.962-0.328 1.528-0.328v0c0.556 0 1.063 0.109 1.521 0.328 0.458 0.22 0.851 0.521 1.18 0.901 0.326 0.38 0.576 0.826 0.752 1.337 0.176 0.513 0.263 1.062 0.263 1.648v0c0 0.605-0.09 1.161-0.269 1.667-0.181 0.507-0.435 0.948-0.761 1.323-0.328 0.376-0.721 0.669-1.179 0.878-0.458 0.211-0.961 0.316-1.507 0.316v0c-0.575 0-1.089-0.102-1.542-0.307-0.455-0.205-0.84-0.493-1.156-0.864-0.318-0.371-0.562-0.812-0.732-1.325-0.172-0.511-0.257-1.074-0.257-1.688zM97.784 186.838v0c-0.419 0.595-0.629 1.492-0.629 2.692v0c0 0.595 0.057 1.117 0.17 1.565 0.111 0.449 0.264 0.821 0.459 1.118 0.195 0.298 0.424 0.521 0.688 0.667 0.263 0.146 0.551 0.219 0.863 0.219v0c0.302 0 0.59-0.073 0.863-0.219 0.273-0.146 0.507-0.369 0.702-0.667 0.195-0.297 0.351-0.669 0.468-1.118 0.117-0.449 0.176-0.97 0.176-1.565v0c0-0.595-0.059-1.12-0.176-1.575-0.117-0.453-0.275-0.828-0.474-1.126-0.201-0.297-0.435-0.521-0.702-0.673-0.269-0.15-0.555-0.225-0.857-0.225v0c-0.605 0-1.122 0.302-1.551 0.907zM109.678 192.748l-2.969-3.54 3.057-2.956-0.965-0.117c-0.039-0.156-0.039-0.346 0-0.57v0c0.536 0.039 1.039 0.059 1.507 0.058v0c0.38 0 0.888-0.015 1.521-0.044v0c0.059 0.176 0.059 0.361 0 0.556v0l-1.156 0.205-2.589 2.429 3.189 3.818 1.141 0.293c0.039 0.156 0.039 0.351 0 0.585v0c-0.614-0.029-1.229-0.044-1.843-0.044v0c-0.419 0-1.039 0.01-1.858 0.03v0c-0.059-0.195-0.059-0.385 0-0.571v0zM106.548 184.146v0 8.529l1.185 0.22c0.039 0.156 0.039 0.351 0 0.585v0c-0.614-0.029-1.239-0.044-1.873-0.044v0c-0.449 0-1.083 0.01-1.902 0.029v0c-0.059-0.185-0.059-0.376 0-0.57v0l1.156-0.161c0.039-0.536 0.059-1.156 0.058-1.858v0-8.384l-1.199-0.146c-0.039-0.146-0.039-0.332 0-0.556v0c0.653-0.049 1.487-0.151 2.501-0.307v0c0.088 0.098 0.137 0.195 0.147 0.292v0c-0.049 0.254-0.073 1.044-0.073 2.371zM118.574 189.295v0h-4.594c-0.088 2.487 0.658 3.731 2.238 3.731v0c0.673 0 1.361-0.297 2.063-0.892v0c0.146 0.088 0.258 0.239 0.337 0.453v0c-0.673 0.751-1.526 1.127-2.561 1.127v0c-2.38 0-3.57-1.4-3.569-4.199v0c0-1.326 0.351-2.358 1.053-3.096 0.702-0.735 1.522-1.103 2.458-1.103v0c1.024 0 1.761 0.356 2.209 1.068 0.449 0.712 0.673 1.639 0.673 2.78v0c-0.098 0.078-0.2 0.122-0.307 0.131zM115.97 185.901v0c-0.507 0-0.939 0.263-1.297 0.79-0.355 0.527-0.572 1.2-0.649 2.019v0h1.814c0.722 0 1.239-0.044 1.551-0.131v0c0-0.8-0.122-1.446-0.366-1.94-0.244-0.492-0.595-0.737-1.053-0.738zM127.206 184.146v7.198c0 0.653 0.015 1.112 0.044 1.375v0l1.155 0.146c0.029 0.156 0.029 0.341 0 0.556v0c-0.712 0.029-1.453 0.098-2.223 0.205v0c-0.068-0.068-0.117-0.161-0.147-0.278v0l-0.073-0.936c-0.341 0.4-0.766 0.719-1.273 0.957-0.507 0.24-1.039 0.36-1.594 0.359v0c-0.849 0-1.551-0.354-2.107-1.062-0.556-0.706-0.834-1.649-0.834-2.829v0c0-1.365 0.364-2.461 1.091-3.286 0.726-0.823 1.596-1.235 2.61-1.235v0c0.8 0 1.453 0.19 1.961 0.571v0-1.961c0-0.644-0.015-1.122-0.044-1.434v0l-1.156-0.146c-0.039-0.146-0.039-0.332 0-0.556v0c0.673-0.049 1.512-0.151 2.517-0.307v0c0.088 0.098 0.137 0.195 0.146 0.292v0c-0.049 0.254-0.073 1.044-0.073 2.371zM123.738 186.106v0c-0.634 0-1.141 0.334-1.521 1.001-0.38 0.669-0.571 1.594-0.571 2.774v0c0 0.966 0.178 1.702 0.533 2.209 0.357 0.507 0.828 0.761 1.413 0.761v0c0.351 0 0.736-0.11 1.156-0.331 0.419-0.218 0.775-0.523 1.068-0.913v0-4.682c-0.478-0.546-1.17-0.819-2.078-0.819zM131.653 191.797v0c0.263 0 0.486 0.086 0.667 0.258 0.179 0.17 0.269 0.381 0.27 0.635v0c0 0.254-0.09 0.47-0.27 0.649-0.181 0.181-0.399 0.272-0.652 0.272v0c-0.254 0-0.47-0.091-0.65-0.272-0.181-0.179-0.272-0.396-0.272-0.649v0c0-0.254 0.088-0.465 0.264-0.635 0.176-0.172 0.39-0.257 0.643-0.258zM131.097 191.036v0l-0.292-3.584h0.161c0.527 0 0.966-0.052 1.316-0.155 0.351-0.101 0.637-0.262 0.858-0.483 0.218-0.218 0.375-0.498 0.468-0.84 0.092-0.341 0.138-0.751 0.137-1.229v0c0-0.8-0.137-1.448-0.409-1.945-0.273-0.497-0.673-0.746-1.2-0.747v0c-0.732 0-1.219 0.678-1.463 2.034v0c-0.41 0-0.736-0.022-0.98-0.067-0.244-0.043-0.419-0.123-0.527-0.24v0c0-0.39 0.073-0.732 0.22-1.024 0.146-0.293 0.349-0.536 0.608-0.732 0.257-0.195 0.557-0.341 0.899-0.439 0.341-0.098 0.702-0.146 1.082-0.146v0c1.151 0 2.022 0.302 2.613 0.907 0.589 0.605 0.884 1.434 0.884 2.487v0c0 2.029-1.244 3.136-3.731 3.321v0l0.132 2.882c-0.068 0.029-0.134 0.049-0.196 0.059-0.064 0.01-0.126 0.015-0.185 0.015v0c-0.156 0-0.288-0.024-0.395-0.074zM141.456 193.582v0c0.088 0.039 0.161 0.122 0.219 0.249v0c-0.322 0.263-0.483 0.658-0.483 1.185v0c0 0.468 0.215 0.844 0.644 1.127 0.429 0.283 0.985 0.424 1.668 0.424v0c0.702 0 1.287-0.129 1.756-0.386 0.468-0.259 0.702-0.623 0.702-1.092v0c0-0.507-0.093-0.88-0.278-1.118-0.185-0.24-0.556-0.384-1.112-0.433v0l-2.736-0.248c-0.302-0.039-0.553-0.198-0.752-0.477-0.201-0.277-0.301-0.547-0.301-0.811v0l0.98-1.624c-0.449-0.254-0.787-0.59-1.015-1.009-0.23-0.419-0.345-0.849-0.346-1.288v0c0-0.829 0.307-1.497 0.922-2.004 0.614-0.507 1.322-0.761 2.121-0.761v0c0.771 0 1.448 0.205 2.034 0.615v0c0.049-1.336 0.546-2.029 1.492-2.078v0c0.254 0.059 0.38 0.268 0.381 0.629v0c0 0.195-0.02 0.41-0.059 0.644v0c-0.38 0.029-0.693 0.153-0.936 0.371-0.244 0.22-0.419 0.472-0.527 0.755v0c0.488 0.488 0.732 1.097 0.732 1.829v0c0 0.771-0.312 1.411-0.937 1.923-0.624 0.513-1.351 0.77-2.18 0.769v0c-0.439 0-0.834-0.059-1.185-0.175v0l-0.497 1.302 3.643 0.365c0.566 0.068 0.998 0.275 1.296 0.621 0.297 0.347 0.445 0.799 0.445 1.355v0c0 0.975-0.351 1.724-1.054 2.247-0.702 0.521-1.653 0.781-2.852 0.781v0c-0.995 0-1.77-0.18-2.327-0.541-0.556-0.361-0.834-0.844-0.834-1.449v0c0-0.41 0.132-0.772 0.395-1.088 0.263-0.318 0.59-0.521 0.981-0.609zM141.719 188.081v0c0 0.566 0.159 1.049 0.477 1.449 0.316 0.4 0.737 0.6 1.264 0.599v0c0.517 0 0.941-0.198 1.273-0.594 0.332-0.394 0.497-0.879 0.497-1.454v0c0-0.624-0.163-1.144-0.488-1.559-0.328-0.414-0.755-0.62-1.282-0.621v0c-0.497 0-0.912 0.21-1.244 0.629-0.332 0.419-0.497 0.936-0.497 1.551zM154.111 189.295v0h-4.594c-0.088 2.487 0.658 3.731 2.238 3.731v0c0.673 0 1.361-0.297 2.063-0.892v0c0.146 0.088 0.258 0.239 0.337 0.453v0c-0.673 0.751-1.526 1.127-2.561 1.127v0c-2.38 0-3.57-1.4-3.569-4.199v0c0-1.326 0.351-2.358 1.053-3.096 0.702-0.735 1.522-1.103 2.458-1.103v0c1.024 0 1.761 0.356 2.209 1.068 0.449 0.712 0.673 1.639 0.673 2.78v0c-0.098 0.078-0.2 0.122-0.307 0.131zM151.507 185.901v0c-0.507 0-0.938 0.263-1.294 0.79-0.357 0.527-0.574 1.2-0.652 2.019v0h1.814c0.722 0 1.239-0.044 1.551-0.131v0c0-0.8-0.122-1.446-0.366-1.94-0.244-0.492-0.595-0.737-1.053-0.738zM157.827 183.853v0 2.092h2.063c0.02 0.117 0.029 0.205 0.029 0.263v0c0 0.088-0.01 0.19-0.029 0.308v0l-2.063 0.307v4.023c0 0.722 0.066 1.231 0.199 1.528 0.131 0.298 0.337 0.448 0.62 0.447v0c0.254 0 0.649-0.102 1.185-0.307v0c0.098 0.088 0.166 0.254 0.205 0.498v0c-0.293 0.176-0.515 0.304-0.667 0.386-0.15 0.084-0.339 0.158-0.568 0.222-0.23 0.062-0.472 0.094-0.725 0.094v0c-0.488 0-0.886-0.188-1.194-0.565-0.306-0.375-0.459-0.947-0.459-1.717v0-4.785l-1.025-0.131c-0.02-0.098-0.029-0.18-0.029-0.249v0c0-0.078 0.01-0.185 0.029-0.322v0c0.273-0.049 0.51-0.135 0.711-0.257 0.199-0.121 0.367-0.292 0.504-0.512 0.137-0.218 0.242-0.414 0.316-0.586 0.072-0.17 0.162-0.415 0.269-0.737v0c0.088-0.029 0.195-0.044 0.322-0.044v0c0.117 0 0.219 0.015 0.307 0.044zM167.907 181.483v0c1.453 0 2.18 0.575 2.18 1.726v0c-0.205 0.215-0.693 0.317-1.463 0.307v0c-0.098-1.024-0.346-1.536-0.746-1.536v0c-0.371 0-0.631 0.295-0.781 0.884-0.152 0.591-0.228 1.667-0.228 3.227v0h2.062c0.059 0.185 0.059 0.376 0 0.571v0l-2.062 0.307v5.633l1.77 0.293c0.059 0.195 0.059 0.39 0 0.585v0c-0.614-0.029-1.37-0.044-2.268-0.044v0c-0.527 0-1.2 0.01-2.019 0.029v0c-0.078-0.176-0.078-0.366 0-0.57v0l1.068-0.235c0.039-0.517 0.059-1.112 0.059-1.784v0-4.053l-1.039-0.161c-0.059-0.195-0.059-0.385 0-0.571v0h1.039v-0.994c0-0.585 0.083-1.144 0.248-1.677 0.166-0.531 0.442-0.986 0.828-1.367 0.384-0.38 0.835-0.571 1.352-0.57zM171.345 191.475v0c0 0.507 0.093 0.865 0.278 1.074 0.185 0.211 0.478 0.316 0.878 0.316v0c0.293 0 0.617-0.091 0.975-0.272 0.355-0.179 0.684-0.44 0.986-0.781v0-2.282c-1.005 0.059-1.775 0.236-2.312 0.532-0.536 0.298-0.805 0.77-0.805 1.413zM174.462 189.003v0-0.746c0-0.829-0.095-1.432-0.284-1.809-0.191-0.375-0.506-0.562-0.945-0.561v0c-0.449 0-0.81 0.143-1.083 0.43-0.273 0.289-0.458 0.779-0.556 1.472v0c-0.312 0.068-0.541 0.102-0.687 0.102v0c-0.38 0-0.605-0.137-0.673-0.41v0c0-0.663 0.288-1.19 0.863-1.58 0.575-0.39 1.292-0.585 2.15-0.585v0c0.946 0 1.617 0.192 2.014 0.576 0.394 0.386 0.591 1.077 0.591 2.072v0 4.126c0 0.244 0.015 0.454 0.044 0.629v0l1.155 0.146c0.039 0.146 0.039 0.332 0 0.556v0c-0.693 0.029-1.429 0.098-2.209 0.205v0c-0.078-0.078-0.127-0.176-0.146-0.293v0l-0.073-1.009c-0.81 0.927-1.712 1.39-2.707 1.39v0c-0.614 0-1.094-0.176-1.44-0.527-0.347-0.351-0.521-0.824-0.52-1.419v0c0-0.897 0.408-1.575 1.223-2.034 0.813-0.458 1.908-0.702 3.283-0.731zM184.176 187.481v0c-0.205 0.215-0.688 0.317-1.448 0.308v0c-0.156-1.229-0.6-1.843-1.331-1.844v0c-0.575 0-1.063 0.332-1.464 0.995-0.4 0.663-0.6 1.536-0.599 2.619v0c0 1.112 0.176 1.968 0.526 2.569 0.351 0.599 0.878 0.898 1.58 0.898v0c0.741 0 1.468-0.302 2.18-0.907v0c0.146 0.088 0.258 0.239 0.337 0.454v0c-0.712 0.761-1.604 1.141-2.678 1.141v0c-1.024 0-1.863-0.354-2.516-1.062-0.653-0.706-0.98-1.747-0.98-3.122v0c0-1.317 0.364-2.349 1.091-3.096 0.726-0.745 1.557-1.118 2.493-1.118v0c0.741 0 1.395 0.185 1.961 0.556 0.566 0.371 0.849 0.907 0.848 1.609zM191.36 189.295v0h-4.594c-0.088 2.487 0.658 3.731 2.238 3.731v0c0.673 0 1.361-0.297 2.063-0.892v0c0.146 0.088 0.258 0.239 0.337 0.453v0c-0.673 0.751-1.526 1.127-2.561 1.127v0c-2.38 0-3.57-1.4-3.569-4.199v0c0-1.326 0.351-2.358 1.053-3.096 0.702-0.735 1.522-1.103 2.458-1.103v0c1.024 0 1.761 0.356 2.209 1.068 0.449 0.712 0.673 1.639 0.673 2.78v0c-0.098 0.078-0.2 0.122-0.307 0.131zM188.756 185.901v0c-0.507 0-0.938 0.263-1.294 0.79-0.357 0.527-0.574 1.2-0.652 2.019v0h1.814c0.722 0 1.239-0.044 1.551-0.131v0c0-0.8-0.122-1.446-0.366-1.94-0.244-0.492-0.595-0.737-1.053-0.738zM194.813 184.146v2.384c0.81-0.81 1.692-1.214 2.648-1.214v0c0.946 0 1.685 0.356 2.218 1.068 0.531 0.712 0.796 1.673 0.796 2.882v0c0 1.375-0.371 2.46-1.112 3.254-0.741 0.796-1.663 1.194-2.766 1.194v0c-0.956 0-1.707-0.341-2.253-1.024v0l-0.307 0.995c-0.185 0.029-0.341 0.029-0.468 0v0l-0.146-1.61v-9.583l-1.2-0.146c-0.039-0.146-0.039-0.332 0-0.556v0c0.673-0.049 1.512-0.151 2.516-0.307v0c0.088 0.098 0.137 0.195 0.147 0.292v0c-0.049 0.254-0.073 1.044-0.073 2.371zM196.919 192.909v0c0.605 0 1.105-0.281 1.501-0.843 0.394-0.56 0.591-1.352 0.591-2.375v0c0-0.205-0.005-0.361-0.014-0.469v0c0-0.966-0.192-1.712-0.577-2.238-0.386-0.527-0.872-0.79-1.457-0.79v0c-0.341 0-0.712 0.109-1.112 0.328-0.4 0.22-0.746 0.521-1.038 0.901v0 4.477c0.332 0.38 0.649 0.644 0.951 0.79 0.302 0.146 0.688 0.219 1.155 0.219zM201.747 189.53v0c0-0.585 0.086-1.134 0.258-1.648 0.17-0.511 0.415-0.957 0.737-1.337 0.322-0.38 0.71-0.681 1.165-0.901 0.453-0.218 0.962-0.328 1.527-0.328v0c0.556 0 1.063 0.109 1.522 0.328 0.458 0.22 0.851 0.521 1.179 0.901 0.326 0.38 0.576 0.826 0.752 1.337 0.176 0.513 0.263 1.062 0.263 1.648v0c0 0.605-0.09 1.161-0.269 1.667-0.181 0.507-0.435 0.948-0.761 1.323-0.328 0.376-0.721 0.669-1.179 0.878-0.458 0.211-0.961 0.316-1.507 0.316v0c-0.575 0-1.089-0.102-1.542-0.307-0.455-0.205-0.84-0.493-1.156-0.864-0.318-0.371-0.562-0.812-0.731-1.325-0.172-0.511-0.257-1.074-0.258-1.688zM203.883 186.838v0c-0.419 0.595-0.629 1.492-0.629 2.692v0c0 0.595 0.057 1.117 0.17 1.565 0.111 0.449 0.264 0.821 0.459 1.118 0.195 0.298 0.424 0.521 0.688 0.667 0.263 0.146 0.551 0.219 0.863 0.219v0c0.302 0 0.59-0.073 0.863-0.219 0.273-0.146 0.507-0.369 0.703-0.667 0.195-0.297 0.351-0.669 0.468-1.118 0.117-0.449 0.176-0.97 0.175-1.565v0c0-0.595-0.059-1.12-0.175-1.575-0.117-0.453-0.275-0.828-0.474-1.126-0.201-0.297-0.435-0.521-0.702-0.673-0.269-0.15-0.555-0.225-0.858-0.225v0c-0.605 0-1.122 0.302-1.551 0.907zM210.409 189.53v0c0-0.585 0.086-1.134 0.257-1.648 0.17-0.511 0.415-0.957 0.737-1.337 0.322-0.38 0.71-0.681 1.165-0.901 0.453-0.218 0.962-0.328 1.527-0.328v0c0.556 0 1.063 0.109 1.522 0.328 0.458 0.22 0.851 0.521 1.179 0.901 0.326 0.38 0.576 0.826 0.752 1.337 0.176 0.513 0.263 1.062 0.264 1.648v0c0 0.605-0.09 1.161-0.27 1.667-0.181 0.507-0.436 0.948-0.763 1.323-0.326 0.376-0.718 0.669-1.177 0.878-0.458 0.211-0.961 0.316-1.507 0.316v0c-0.575 0-1.089-0.102-1.542-0.307-0.455-0.205-0.84-0.493-1.155-0.864-0.318-0.371-0.562-0.812-0.732-1.325-0.172-0.511-0.257-1.074-0.257-1.688zM212.545 186.838v0c-0.419 0.595-0.629 1.492-0.63 2.692v0c0 0.595 0.057 1.117 0.17 1.565 0.111 0.449 0.264 0.821 0.46 1.118 0.195 0.298 0.424 0.521 0.687 0.667 0.263 0.146 0.551 0.219 0.863 0.219v0c0.302 0 0.59-0.073 0.864-0.219 0.273-0.146 0.507-0.369 0.702-0.667 0.195-0.297 0.351-0.669 0.468-1.118 0.117-0.449 0.176-0.97 0.176-1.565v0c0-0.595-0.059-1.12-0.176-1.575-0.117-0.453-0.275-0.828-0.474-1.126-0.201-0.297-0.436-0.521-0.705-0.673-0.267-0.15-0.552-0.225-0.855-0.225v0c-0.605 0-1.122 0.302-1.55 0.907zM224.439 192.748l-2.97-3.54 3.058-2.956-0.966-0.117c-0.039-0.156-0.039-0.346 0-0.57v0c0.536 0.039 1.039 0.059 1.507 0.058v0c0.38 0 0.888-0.015 1.522-0.044v0c0.059 0.176 0.059 0.361 0 0.556v0l-1.156 0.205-2.59 2.429 3.19 3.818 1.141 0.293c0.039 0.156 0.039 0.351 0 0.585v0c-0.614-0.029-1.229-0.044-1.843-0.044v0c-0.419 0-1.039 0.01-1.859 0.03v0c-0.059-0.195-0.059-0.385 0-0.571v0zM221.308 184.146v0 8.529l1.185 0.22c0.039 0.156 0.039 0.351 0 0.585v0c-0.614-0.029-1.239-0.044-1.872-0.044v0c-0.449 0-1.083 0.01-1.902 0.029v0c-0.059-0.185-0.059-0.376 0-0.57v0l1.155-0.161c0.039-0.536 0.059-1.156 0.059-1.858v0-8.384l-1.2-0.146c-0.039-0.146-0.039-0.332 0-0.556v0c0.653-0.049 1.487-0.151 2.502-0.307v0c0.088 0.098 0.137 0.195 0.146 0.292v0c-0.049 0.254-0.073 1.044-0.073 2.371zM233.334 189.295v0h-4.594c-0.088 2.487 0.658 3.731 2.239 3.731v0c0.673 0 1.361-0.297 2.063-0.892v0c0.146 0.088 0.258 0.239 0.336 0.453v0c-0.673 0.751-1.526 1.127-2.56 1.127v0c-2.38 0-3.57-1.4-3.57-4.199v0c0-1.326 0.351-2.358 1.053-3.096 0.702-0.735 1.522-1.103 2.458-1.103v0c1.024 0 1.761 0.356 2.21 1.068 0.449 0.712 0.673 1.639 0.673 2.78v0c-0.098 0.078-0.2 0.122-0.308 0.131zM230.73 185.901v0c-0.507 0-0.938 0.263-1.293 0.79-0.357 0.527-0.574 1.2-0.653 2.019v0h1.814c0.722 0 1.239-0.044 1.551-0.131v0c0-0.8-0.122-1.446-0.365-1.94-0.244-0.492-0.595-0.737-1.054-0.738zM241.966 184.146v7.198c0 0.653 0.015 1.112 0.044 1.375v0l1.156 0.146c0.029 0.156 0.029 0.341 0 0.556v0c-0.712 0.029-1.453 0.098-2.224 0.205v0c-0.068-0.068-0.117-0.161-0.146-0.278v0l-0.073-0.936c-0.341 0.4-0.766 0.719-1.273 0.957-0.507 0.24-1.039 0.36-1.595 0.359v0c-0.849 0-1.551-0.354-2.107-1.062-0.556-0.706-0.834-1.649-0.834-2.829v0c0-1.365 0.364-2.461 1.092-3.286 0.726-0.823 1.596-1.235 2.61-1.235v0c0.8 0 1.453 0.19 1.96 0.571v0-1.961c0-0.644-0.015-1.122-0.044-1.434v0l-1.155-0.146c-0.039-0.146-0.039-0.332 0-0.556v0c0.673-0.049 1.512-0.151 2.516-0.307v0c0.088 0.098 0.137 0.195 0.146 0.292v0c-0.049 0.254-0.073 1.044-0.073 2.371zM238.499 186.106v0c-0.634 0-1.141 0.334-1.522 1.001-0.38 0.669-0.571 1.594-0.57 2.774v0c0 0.966 0.178 1.702 0.535 2.209 0.355 0.507 0.825 0.761 1.411 0.761v0c0.351 0 0.736-0.11 1.155-0.331 0.419-0.218 0.775-0.523 1.068-0.913v0-4.682c-0.478-0.546-1.17-0.819-2.077-0.819zM245.083 190.656v0l-0.542-8.924c0.273-0.117 0.556-0.176 0.849-0.176v0c0.273 0 0.512 0.059 0.717 0.176v0l-0.381 8.924c-0.107 0.029-0.21 0.044-0.307 0.044v0c-0.107 0-0.219-0.015-0.336-0.044zM245.39 191.797v0c0.263 0 0.486 0.086 0.667 0.258 0.179 0.17 0.269 0.381 0.269 0.635v0c0 0.254-0.09 0.47-0.269 0.649-0.181 0.181-0.399 0.272-0.653 0.272v0c-0.254 0-0.47-0.091-0.649-0.272-0.181-0.179-0.272-0.396-0.272-0.649v0c0-0.254 0.088-0.465 0.263-0.635 0.176-0.172 0.39-0.257 0.644-0.258z" fill="#ffffff" fill-rule="nonzero" stroke="none" stroke-width="1" stroke-linecap="butt" stroke-linejoin="miter" stroke-miterlimit="10" stroke-dasharray="" stroke-dashoffset="0" font-family="none" font-weight="none" font-size="none" text-anchor="none" style="mix-blend-mode: normal" data-fill-palette-color="secondary" id="text-1"></path></g></g><g transform="matrix(1,0,0,1,29.33176499999999,46.31730896383868)"><svg viewBox="0 0 316.416 49.11269207232267" height="49.11269207232267" width="316.416"><g><svg viewBox="0 0 316.416 49.11269207232267" height="49.11269207232267" width="316.416"><g><svg viewBox="0 0 316.416 49.11269207232267" height="49.11269207232267" width="316.416"><g id="textblocktransform"><svg viewBox="0 0 316.416 49.11269207232267" height="49.11269207232267" width="316.416" id="textblock"><g><svg viewBox="0 0 316.416 49.11269207232267" height="49.11269207232267" width="316.416"><g transform="matrix(1,0,0,1,0,0)"><svg width="316.416" viewBox="1.5 -40.8 269.605 41.849999999999994" height="49.11269207232267" data-palette-color="#f4f3f0"><path d="M13.85-40.8L13.85-40.8Q21.3-40.8 21.3-34.9L21.3-34.9Q20.25-33.8 16.3-33.85L16.3-33.85Q15.8-39.1 13.75-39.1L13.75-39.1Q11.85-39.1 11.08-36.08 10.3-33.05 10.3-25.05L10.3-25.05 17.35-25.05Q17.65-24.1 17.35-23.1L17.35-23.1 10.3-22.05 10.3-2.8 16.35-1.8Q16.65-0.8 16.35 0.2L16.35 0.2Q13.2 0.05 8.6 0.05L8.6 0.05Q5.9 0.05 1.7 0.15L1.7 0.15Q1.3-0.75 1.7-1.8L1.7-1.8 5.35-2.6Q5.55-5.25 5.55-8.7L5.55-8.7 5.55-22.55 2-23.1Q1.7-24.1 2-25.05L2-25.05 5.55-25.05 5.55-28.45Q5.55-31.45 6.4-34.18 7.25-36.9 9.22-38.85 11.2-40.8 13.85-40.8ZM25.6-6.65L25.6-6.65Q25.6-4.05 26.55-2.98 27.5-1.9 29.55-1.9L29.55-1.9Q31.05-1.9 32.87-2.83 34.7-3.75 36.25-5.5L36.25-5.5 36.25-13.3Q31.1-13 28.35-11.48 25.6-9.95 25.6-6.65ZM36.25-15.1L36.25-15.1 36.25-17.65Q36.25-21.9 35.27-23.83 34.3-25.75 32.05-25.75L32.05-25.75Q29.75-25.75 28.35-24.28 26.95-22.8 26.45-19.25L26.45-19.25Q24.85-18.9 24.1-18.9L24.1-18.9Q22.15-18.9 21.8-20.3L21.8-20.3Q21.8-23.7 24.75-25.7 27.7-27.7 32.1-27.7L32.1-27.7Q36.95-27.7 38.97-25.73 41-23.75 41-18.65L41-18.65 41-4.55Q41-3.3 41.15-2.4L41.15-2.4 45.1-1.9Q45.3-1.15 45.1 0L45.1 0Q41.55 0.15 37.55 0.7L37.55 0.7Q37.15 0.3 37.05-0.3L37.05-0.3 36.8-3.75Q32.65 1 27.55 1L27.55 1Q24.4 1 22.62-0.8 20.85-2.6 20.85-5.65L20.85-5.65Q20.85-10.25 25.02-12.6 29.2-14.95 36.25-15.1ZM69.45-20.3L69.45-20.3Q68.4-19.2 64.5-19.25L64.5-19.25Q63.7-25.55 59.95-25.55L59.95-25.55Q57-25.55 54.95-22.15 52.9-18.75 52.9-13.2L52.9-13.2Q52.9-7.5 54.7-4.42 56.5-1.35 60.09-1.35L60.09-1.35Q63.9-1.35 67.55-4.45L67.55-4.45Q68.3-4 68.7-2.9L68.7-2.9Q65.05 1 59.55 1L59.55 1Q54.3 1 50.95-2.63 47.59-6.25 47.59-13.3L47.59-13.3Q47.59-20.05 51.32-23.88 55.05-27.7 59.84-27.7L59.84-27.7Q63.65-27.7 66.55-25.8 69.45-23.9 69.45-20.3ZM93.99-14.1L93.99-14.1 78.29-14.1Q77.84-1.35 85.94-1.35L85.94-1.35Q89.39-1.35 92.99-4.4L92.99-4.4Q93.74-3.95 94.14-2.85L94.14-2.85Q90.69 1 85.39 1L85.39 1Q73.19 1 73.19-13.35L73.19-13.35Q73.19-20.15 76.79-23.93 80.39-27.7 85.19-27.7L85.19-27.7Q90.44-27.7 92.74-24.05 95.04-20.4 95.04-14.55L95.04-14.55Q94.54-14.15 93.99-14.1ZM85.09-25.7L85.09-25.7Q82.49-25.7 80.67-23 78.84-20.3 78.44-16.1L78.44-16.1 84.64-16.1Q88.34-16.1 89.94-16.55L89.94-16.55Q89.94-20.65 88.69-23.18 87.44-25.7 85.09-25.7ZM105.79-31.7L105.79-23.55Q109.94-27.7 114.84-27.7L114.84-27.7Q119.69-27.7 122.42-24.05 125.14-20.4 125.14-14.2L125.14-14.2Q125.14-7.15 121.34-3.08 117.54 1 111.89 1L111.89 1Q106.99 1 104.19-2.5L104.19-2.5 103.14 0.9Q102.19 1.05 101.54 0.9L101.54 0.9 101.04-4.6 101.04-37.35 96.94-37.85Q96.74-38.6 96.94-39.75L96.94-39.75Q100.39-40 105.54-40.8L105.54-40.8Q105.99-40.3 106.04-39.8L106.04-39.8Q105.79-38.5 105.79-31.7L105.79-31.7ZM112.99-1.75L112.99-1.75Q116.09-1.75 118.12-4.63 120.14-7.5 120.14-12.75L120.14-12.75Q120.14-13.8 120.09-14.35L120.09-14.35Q120.09-19.3 118.12-22 116.14-24.7 113.14-24.7L113.14-24.7Q111.39-24.7 109.34-23.58 107.29-22.45 105.79-20.5L105.79-20.5 105.79-5.2Q107.49-3.25 109.04-2.5 110.59-1.75 112.99-1.75ZM129.49-13.3L129.49-13.3Q129.49-16.3 130.36-18.93 131.24-21.55 132.89-23.5 134.54-25.45 136.86-26.58 139.19-27.7 142.09-27.7L142.09-27.7Q144.94-27.7 147.29-26.58 149.64-25.45 151.31-23.5 152.99-21.55 153.89-18.93 154.79-16.3 154.79-13.3L154.79-13.3Q154.79-10.2 153.86-7.6 152.94-5 151.26-3.08 149.59-1.15 147.24-0.08 144.89 1 142.09 1L142.09 1Q139.14 1 136.81-0.05 134.49-1.1 132.86-3 131.24-4.9 130.36-7.53 129.49-10.15 129.49-13.3ZM136.79-22.5L136.79-22.5Q134.64-19.45 134.64-13.3L134.64-13.3Q134.64-10.25 135.21-7.95 135.79-5.65 136.79-4.13 137.79-2.6 139.14-1.85 140.49-1.1 142.09-1.1L142.09-1.1Q143.64-1.1 145.04-1.85 146.44-2.6 147.44-4.13 148.44-5.65 149.04-7.95 149.64-10.25 149.64-13.3L149.64-13.3Q149.64-16.35 149.04-18.68 148.44-21 147.41-22.53 146.39-24.05 145.01-24.83 143.64-25.6 142.09-25.6L142.09-25.6Q138.99-25.6 136.79-22.5ZM159.09-13.3L159.09-13.3Q159.09-16.3 159.96-18.93 160.84-21.55 162.49-23.5 164.14-25.45 166.46-26.58 168.79-27.7 171.69-27.7L171.69-27.7Q174.54-27.7 176.89-26.58 179.24-25.45 180.91-23.5 182.59-21.55 183.49-18.93 184.39-16.3 184.39-13.3L184.39-13.3Q184.39-10.2 183.46-7.6 182.54-5 180.86-3.08 179.19-1.15 176.84-0.08 174.49 1 171.69 1L171.69 1Q168.74 1 166.41-0.05 164.09-1.1 162.46-3 160.84-4.9 159.96-7.53 159.09-10.15 159.09-13.3ZM166.39-22.5L166.39-22.5Q164.24-19.45 164.24-13.3L164.24-13.3Q164.24-10.25 164.81-7.95 165.39-5.65 166.39-4.13 167.39-2.6 168.74-1.85 170.09-1.1 171.69-1.1L171.69-1.1Q173.24-1.1 174.64-1.85 176.04-2.6 177.04-4.13 178.04-5.65 178.64-7.95 179.24-10.25 179.24-13.3L179.24-13.3Q179.24-16.35 178.64-18.68 178.04-21 177.01-22.53 175.99-24.05 174.61-24.83 173.24-25.6 171.69-25.6L171.69-25.6Q168.59-25.6 166.39-22.5ZM207.03-2.3L196.88-14.4 207.33-24.5 204.03-24.9Q203.83-25.7 204.03-26.85L204.03-26.85Q206.78-26.65 209.18-26.65L209.18-26.65Q211.13-26.65 214.38-26.8L214.38-26.8Q214.68-25.9 214.38-24.9L214.38-24.9 210.43-24.2 201.58-15.9 212.48-2.85 216.38-1.85Q216.58-1.05 216.38 0.15L216.38 0.15Q213.23 0 210.08 0L210.08 0Q207.93 0 203.73 0.1L203.73 0.1Q203.43-0.9 203.73-1.85L203.73-1.85 207.03-2.3ZM196.33-31.7L196.33-31.7 196.33-2.55 200.38-1.8Q200.58-1 200.38 0.2L200.38 0.2Q197.23 0.05 193.98 0.05L193.98 0.05Q191.68 0.05 187.48 0.15L187.48 0.15Q187.18-0.8 187.48-1.8L187.48-1.8 191.43-2.35Q191.63-5.1 191.63-8.7L191.63-8.7 191.63-37.35 187.53-37.85Q187.33-38.6 187.53-39.75L187.53-39.75Q190.88-40 196.08-40.8L196.08-40.8Q196.53-40.3 196.58-39.8L196.58-39.8Q196.33-38.5 196.33-31.7ZM237.43-14.1L237.43-14.1 221.73-14.1Q221.28-1.35 229.38-1.35L229.38-1.35Q232.83-1.35 236.43-4.4L236.43-4.4Q237.18-3.95 237.58-2.85L237.58-2.85Q234.13 1 228.83 1L228.83 1Q216.63 1 216.63-13.35L216.63-13.35Q216.63-20.15 220.23-23.93 223.83-27.7 228.63-27.7L228.63-27.7Q233.88-27.7 236.18-24.05 238.48-20.4 238.48-14.55L238.48-14.55Q237.98-14.15 237.43-14.1ZM228.53-25.7L228.53-25.7Q225.93-25.7 224.11-23 222.28-20.3 221.88-16.1L221.88-16.1 228.08-16.1Q231.78-16.1 233.38-16.55L233.38-16.55Q233.38-20.65 232.13-23.18 230.88-25.7 228.53-25.7ZM266.93-31.7L266.93-7.1Q266.93-3.75 267.08-2.4L267.08-2.4 271.03-1.9Q271.18-1.1 271.03 0L271.03 0Q267.38 0.15 263.43 0.7L263.43 0.7Q263.08 0.35 262.93-0.25L262.93-0.25 262.68-3.45Q260.93-1.4 258.33-0.18 255.73 1.05 252.88 1.05L252.88 1.05Q248.53 1.05 245.68-2.58 242.83-6.2 242.83-12.25L242.83-12.25Q242.83-19.25 246.55-23.48 250.28-27.7 255.48-27.7L255.48-27.7Q259.58-27.7 262.18-25.75L262.18-25.75 262.18-32.45Q262.18-35.75 262.03-37.35L262.03-37.35 258.08-37.85Q257.88-38.6 258.08-39.75L258.08-39.75Q261.53-40 266.68-40.8L266.68-40.8Q267.13-40.3 267.18-39.8L267.18-39.8Q266.93-38.5 266.93-31.7L266.93-31.7ZM255.08-25L255.08-25Q251.83-25 249.88-21.58 247.93-18.15 247.93-12.1L247.93-12.1Q247.93-7.15 249.75-4.55 251.58-1.95 254.58-1.95L254.58-1.95Q256.38-1.95 258.53-3.08 260.68-4.2 262.18-6.2L262.18-6.2 262.18-22.2Q259.73-25 255.08-25Z" opacity="1" transform="matrix(1,0,0,1,0,0)" fill="#ffffff" class="wordmark-text-0" data-fill-palette-color="primary" id="text-0"></path></svg></g></svg></g></svg></g></svg></g><g></g></svg></g></svg></g></svg></g><defs></defs></svg><rect width="375.07953" height="141.74731000000003" fill="none" stroke="none" visibility="hidden"></rect></g></svg></g></svg>